<svg viewBox="0 0 100 100" fill="none" xmlns="http://www.w3.org/2000/svg">
  {/* Tail (Chat Bubble point) behind the ring */}
  <path d="M 35 75 L 30 100 L 60 78 Z" fill="#10b981" />

  {/* Ring */}
  <path fillRule="evenodd" clipRule="evenodd" d="M50 5C25.147 5 5 25.147 5 50C5 74.853 25.147 95 50 95C74.853 95 95 74.853 95 50C95 25.147 74.853 5 50 5ZM50 17C31.775 17 17 31.775 17 50C17 68.225 31.775 83 50 83C68.225 83 83 68.225 83 50C83 31.775 68.225 17 50 17Z" fill="#10b981"/>

  {/* White tail */}
  <path d="M 38 75 L 34 94 L 56 79 Z" fill="#ffffff" />

  {/* Head shape / Chat Bubble inside */}
  <ellipse cx="50" cy="53" rx="34" ry="29" fill="#ffffff" />

  {/* Dark face visor */}
  <rect x="25" y="42" width="50" height="24" rx="12" fill="#0f172a" />

  {/* Emerald eyes */}
  <circle cx="37" cy="52" r="4.5" fill="#10b981" />
  <circle cx="63" cy="52" r="4.5" fill="#10b981" />

  {/* Smile */}
  <path d="M 45 60 Q 50 64 55 60" stroke="#10b981" strokeWidth="2.5" strokeLinecap="round" />

  {/* Ears */}
  <path d="M 15 51 C 9 51 9 61 15 61 Z" fill="#0f172a" />
  <path d="M 85 51 C 91 51 91 61 85 61 Z" fill="#0f172a" />

  {/* Antenna Base */}
  <path d="M 45 28 L 55 28 L 53 24 L 47 24 Z" fill="#ffffff" />
  
  {/* Antenna Stem */}
  <rect x="48.5" y="12" width="3" height="15" fill="#10b981" />
  
  {/* Antenna Top */}
  <circle cx="50" cy="12" r="4.5" fill="#10b981" />
  <circle cx="50" cy="12" r="2.5" fill="#10b981" />
</svg>
