<svg xmlns="http://www.w3.org/2000/svg" viewBox="0 0 48 48">
  <circle cx="24" cy="24" r="24" fill="#000"/>
  <path fill="#25F4EE" d="M21.2 35.8c-4.4 0-8-3.4-8-7.7s3.6-7.7 8-7.7c.5 0 1 .1 1.4.1v5.2c-.4-.1-.8-.2-1.4-.2-1.4 0-2.6 1.1-2.6 2.5s1.2 2.5 2.6 2.5 2.6-1.1 2.6-2.5V9.2h5.3c.4 3.8 2.5 6.2 6.2 6.9v5.2c-2.4-.1-4.5-.9-6.2-2.3v9.9c0 4.2-3.6 7.7-8 7.7z"/>
  <path fill="#FE2C55" d="M22.8 36.8c-4.4 0-8-3.4-8-7.7s3.6-7.7 8-7.7c.5 0 1 .1 1.4.1v5.2c-.4-.1-.8-.2-1.4-.2-1.4 0-2.6 1.1-2.6 2.5s1.2 2.5 2.6 2.5 2.6-1.1 2.6-2.5V10.2h5.3c.4 3.8 2.5 6.2 6.2 6.9v5.2c-2.4-.1-4.5-.9-6.2-2.3v9.9c0 4.2-3.6 7.7-8 7.7z"/>
  <path fill="#fff" d="M21.9 35.8c-4.4 0-8-3.4-8-7.7s3.6-7.7 8-7.7c.5 0 1 .1 1.4.1v5.2c-.4-.1-.8-.2-1.4-.2-1.4 0-2.6 1.1-2.6 2.5s1.2 2.5 2.6 2.5 2.6-1.1 2.6-2.5V9.2h5.3c.4 3.8 2.5 6.2 6.2 6.9v5.2c-2.4-.1-4.5-.9-6.2-2.3v9.9c0 4.2-3.6 7.7-8 7.7z"/>
</svg>
